#!OML:ASF F:\VICON\USERDATA\INSTALL\rory3\rory3.ASF
:FULLY-SPECIFIED
:DEGREES
1849
root 0.629522 16.8726 -1.27426 5.74074 5.79659 2.00367
lowerback 10.4416 0.852408 1.5311
upperback 6.22344 1.33362 7.26224
thorax 0.513818 0.595857 6.62242
lowerneck -14.339 -12.1521 -14.1869
upperneck 19.2011 -17.4665 16.5527
head 11.435 -7.42003 5.54828
rclavicle -1.03368e-014 -2.8625e-014
rhumerus -2.24672 -3.96401 -53.1994
rradius 98.6486
rwrist 16.5219
rhand 9.45828 19.7833
rfingers 7.12502
rthumb 34.6124 -6.86235
lclavicle -1.03368e-014 -2.8625e-014
lhumerus 18.4656 -16.957 11.5595
lradius 72.5257
lwrist 29.0688
lhand 21.1771 26.08
lfingers 7.12502
lthumb 45.63 49.327
rfemur -21.5231 -0.580396 13.1561
rtibia 36.4723
rfoot -22.3577 -6.8658
rtoes -22.0809
lfemur -23.8168 -9.67459 -20.6801
ltibia 36.634
lfoot -17.3079 -1.58591
ltoes -12.8769
1850
root 0.642886 16.8758 -1.24772 5.50885 6.37767 2.17721
lowerback 10.2942 0.893589 1.57688
upperback 6.08701 1.39992 7.57354
thorax 0.439987 0.629485 6.92575
lowerneck -14.1979 -12.2587 -14.5307
upperneck 19.5498 -17.5971 16.5
head 11.59 -7.50231 5.57153
rclavicle 5.32743e-014 1.01778e-013
rhumerus -2.25783 -4.12452 -52.8949
rradius 98.4811
rwrist 16.8324
rhand 9.29827 19.6892
rfingers 7.12502
rthumb 34.4605 -6.99118
lclavicle 5.32743e-014 1.01778e-013
lhumerus 18.8742 -15.8733 9.98604
lradius 72.8043
lwrist 29.4492
lhand 21.3976 25.861
lfingers 7.12502
lthumb 45.8347 49.0241
rfemur -20.8997 -0.839472 12.9588
rtibia 36.3285
rfoot -22.426 -7.21617
rtoes -22.3394
lfemur -23.3668 -10.055 -20.939
ltibia 36.4105
lfoot -17.169 -1.97095
ltoes -11.6112
1851
root 0.658056 16.8804 -1.21807 5.18076 6.89745 2.553
lowerback 10.1879 0.972315 1.46327
upperback 6.03184 1.49842 7.79128
thorax 0.422746 0.675555 7.21839
lowerneck -14.1847 -12.3878 -14.7436
upperneck 19.9212 -17.7536 16.35
head 11.7596 -7.58869 5.52609
rclavicle -2.46493e-014 -4.13472e-014
rhumerus -2.26202 -4.50025 -52.6191
rradius 98.3639
rwrist 17.2007
rhand 8.59181 19.5988
rfingers 7.12502
rthumb 33.7895 -7.23147
lclavicle -2.46493e-014 -4.13472e-014
lhumerus 19.4393 -14.7845 8.46075
lradius 72.9264
lwrist 29.7047
lhand 21.4611 25.5501
lfingers 7.12502
lthumb 45.8937 48.6887
rfemur -20.1457 -1.10302 12.5069
rtibia 36.2188
rfoot -22.5854 -7.45625
rtoes -22.3911
lfemur -22.7127 -10.4288 -21.4783
ltibia 36.1399
lfoot -17.0696 -2.1335
ltoes -11.2529
1852
root 0.672883 16.883 -1.19048 4.90817 7.41911 2.6866
lowerback 10.0355 1.05333 1.59022
upperback 5.95682 1.61904 8.047
thorax 0.411447 0.738311 7.41181
lowerneck -14.219 -12.5734 -14.9454
upperneck 20.3028 -18.0092 16.2678
head 11.97 -7.70869 5.48091
rclavicle -3.18055e-015 -4.45278e-014
rhumerus -2.20406 -4.8841 -52.4093
rradius 98.0478
rwrist 17.6186
rhand 8.31041 19.6269
rfingers 7.12502
rthumb 33.5221 -7.26166
lclavicle -3.18055e-015 -4.45278e-014
lhumerus 20.1089 -13.5331 7.07757
lradius 72.9462
lwrist 29.9828
lhand 21.7071 25.3208
lfingers 7.12502
lthumb 46.1219 48.3644
rfemur -19.4887 -1.33904 12.329
rtibia 36.099
rfoot -22.6862 -7.74198
rtoes -22.2786
lfemur -22.1725 -10.8294 -21.724
ltibia 35.8705
lfoot -17.0045 -2.2604
ltoes -11.1655
1853
root 0.685294 16.8849 -1.16718 4.7556 7.97144 2.89358
lowerback 9.78219 1.12038 1.56111
upperback 5.84736 1.70467 8.29335
thorax 0.418985 0.780406 7.69098
lowerneck -14.1515 -12.746 -15.1735
upperneck 20.5796 -18.2553 16.256
head 12.132 -7.82826 5.47002
rclavicle 5.56597e-015 -9.54166e-015
rhumerus -2.15086 -5.12194 -52.1822
rradius 97.7321
rwrist 17.7575
rhand 8.6698 19.6572
rfingers 7.12502
rthumb 33.8636 -7.15675
lclavicle 5.56597e-015 -9.54166e-015
lhumerus 20.6914 -12.2183 5.82464
lradius 73.1431
lwrist 30.5559
lhand 21.874 25.4562
lfingers 7.12502
lthumb 46.2767 48.4347
rfemur -18.968 -1.56442 12.0898
rtibia 35.9689
rfoot -22.7902 -8.02372
rtoes -22.0943
lfemur -21.8061 -11.2008 -22.0164
ltibia 35.6246
lfoot -16.8647 -2.39522
ltoes -11.2478
1854
root 0.699305 16.8875 -1.14282 4.50354 8.51862 2.92255
lowerback 9.63724 1.15274 1.69299
upperback 5.71622 1.76611 8.57064
thorax 0.350521 0.815015 7.91221
lowerneck -14.1143 -12.8345 -15.2363
upperneck 20.9371 -18.3747 16.0518
head 12.2658 -7.89477 5.38749
rclavicle 2.3059e-014 2.22639e-014
rhumerus -2.22273 -5.23073 -52.0409
rradius 97.542
rwrist 17.5546
rhand 8.80358 19.6529
rfingers 7.12502
rthumb 33.9907 -7.13296
lclavicle 2.3059e-014 2.22639e-014
lhumerus 21.1756 -11.1238 4.50544
lradius 73.4231
lwrist 31.0713
lhand 21.7753 25.518
lfingers 7.12502
lthumb 46.1852 48.535
rfemur -18.3437 -1.76429 12.0427
rtibia 35.8056
rfoot -22.9516 -8.24282
rtoes -22.1402
lfemur -21.3732 -11.572 -22.1321
ltibia 35.4361
lfoot -16.7235 -2.58538
ltoes -10.7676
1855
root 0.714631 16.8893 -1.11894 4.1642 8.9124 2.93192
lowerback 9.65917 1.1768 1.94475
upperback 5.60086 1.83397 8.74858
thorax 0.211647 0.856967 7.95199
lowerneck -14.3004 -12.873 -15.1853
upperneck 21.5626 -18.4426 15.7689
head 12.518 -7.9181 5.26437
rclavicle -1.59028e-015 -5.725e-014
rhumerus -2.22617 -5.25894 -52.1121
rradius 97.2712
rwrist 17.0833
rhand 8.56464 19.5058
rfingers 7.12502
rthumb 33.7637 -7.33007
lclavicle -1.59028e-015 -5.725e-014
lhumerus 21.6227 -10.1146 3.04552
lradius 73.6247
lwrist 31.3687
lhand 21.6988 25.3816
lfingers 7.12502
lthumb 46.1142 48.4285
rfemur -17.659 -1.82382 11.9961
rtibia 35.6312
rfoot -23.0124 -8.53447
rtoes -22.3731
lfemur -20.8362 -11.8325 -22.2693
ltibia 35.2701
lfoot -16.686 -2.72867
ltoes -10.3612
1856
root 0.726841 16.8913 -1.09634 3.82424 9.18666 3.01454
lowerback 9.72099 1.26351 2.07242
upperback 5.47426 1.97887 8.88241
thorax 0.0267093 0.93595 8.00652
lowerneck -14.4596 -12.9012 -15.0567
upperneck 22.253 -18.5149 15.4428
head 12.7801 -7.94139 5.11412
rclavicle -2.46493e-014 4.45278e-014
rhumerus -2.23641 -5.32853 -52.2188
rradius 96.9402
rwrist 16.7244
rhand 8.28888 19.4287
rfingers 7.12502
rthumb 33.5017 -7.46434
lclavicle -2.46493e-014 4.45278e-014
lhumerus 22.0077 -9.01981 1.71989
lradius 73.9647
lwrist 31.3948
lhand 21.5605 25.4377
lfingers 7.12502
lthumb 45.9859 48.5381
rfemur -16.985 -1.83923 11.8698
rtibia 35.4441
rfoot -22.9979 -8.78615
rtoes -22.5567
lfemur -20.2728 -11.9428 -22.4978
ltibia 35.1101
lfoot -16.666 -2.83663
ltoes -10.758
1857
root 0.739334 16.8927 -1.07249 3.56698 9.49087 2.99813
lowerback 9.64467 1.40101 2.11367
upperback 5.25744 2.18571 9.13444
thorax -0.191909 1.04528 8.23591
lowerneck -14.1718 -12.9521 -15.0643
upperneck 22.6613 -18.6161 15.19
head 12.8712 -8.01319 5.02125
rclavicle 3.18055e-015 -1.01778e-013
rhumerus -2.43919 -5.30244 -52.1299
rradius 96.6495
rwrist 16.2185
rhand 8.2075 19.3658
rfingers 7.12502
rthumb 33.4243 -7.54389
lclavicle 3.18055e-015 -1.01778e-013
lhumerus 22.4851 -8.03895 0.651571
lradius 74.2292
lwrist 31.4677
lhand 21.6426 25.3493
lfingers 7.12502
lthumb 46.0621 48.4179
rfemur -16.4052 -1.85804 11.8629
rtibia 35.233
rfoot -22.9878 -9.08048
rtoes -22.4858
lfemur -19.8328 -12.087 -22.585
ltibia 34.965
lfoot -16.6628 -2.91732
ltoes -11.4181
1858
root 0.752482 16.894 -1.05135 3.34752 9.87572 3.07826
lowerback 9.61412 1.50345 2.12811
upperback 5.01657 2.34957 9.33407
thorax -0.456252 1.13443 8.42673
lowerneck -13.8694 -13.0423 -15.1281
upperneck 22.9606 -18.7755 15.0393
head 12.9467 -8.10837 4.96145
rclavicle -2.38542e-015 1.11319e-013
rhumerus -2.59302 -5.6241 -52.048
rradius 96.3503
rwrist 16.4071
rhand 8.60996 19.4487
rfingers 7.12502
rthumb 33.8068 -7.37771
lclavicle -2.38542e-015 1.11319e-013
lhumerus 23.0547 -7.17535 -0.511508
lradius 74.3333
lwrist 31.804
lhand 21.8337 25.1373
lfingers 7.12502
lthumb 46.2393 48.1315
rfemur -15.8435 -1.90407 11.7581
rtibia 35.0174
rfoot -23.0391 -9.35118
rtoes -22.2269
lfemur -19.4478 -12.3174 -22.7671
ltibia 34.8295
lfoot -16.6875 -2.98515
ltoes -11.0499
1859
root 0.769666 16.8966 -1.02842 3.10276 10.2402 3.03926
lowerback 9.52425 1.53798 2.36761
upperback 4.84705 2.43046 9.52147
thorax -0.593212 1.18262 8.48454
lowerneck -13.8358 -13.1337 -15.1762
upperneck 23.3833 -18.9191 14.8597
head 13.1194 -8.18045 4.88021
rclavicle -6.36111e-015 -5.40694e-014
rhumerus -2.55025 -5.79718 -52.1021
rradius 95.937
rwrist 16.5292
rhand 8.69151 19.565
rfingers 7.12502
rthumb 33.8843 -7.24438
lclavicle -6.36111e-015 -5.40694e-014
lhumerus 23.4591 -6.22594 -1.65079
lradius 74.4679
lwrist 32.153
lhand 21.9202 25.0884
lfingers 7.12502
lthumb 46.3195 48.0487
rfemur -15.2433 -1.96646 11.7654
rtibia 34.7788
rfoot -23.0577 -9.5843
rtoes -22.0298
lfemur -19.0525 -12.517 -22.8424
ltibia 34.7254
lfoot -16.7012 -3.23438
ltoes -9.60238
1860
root 0.787169 16.8993 -1.00445 2.88566 10.6088 2.97377
lowerback 9.35067 1.57744 2.635
upperback 4.68227 2.51232 9.68112
thorax -0.676746 1.23086 8.49725
lowerneck -13.8061 -13.1955 -15.1153
upperneck 23.7865 -19.0346 14.6578
head 13.2651 -8.23378 4.7789
rclavicle -4.29375e-014 -4.77083e-014
rhumerus -2.57051 -5.9194 -52.1878
rradius 95.6113
rwrist 16.6841
rhand 8.82209 19.6196
rfingers 7.12502
rthumb 34.0083 -7.16232
lclavicle -4.29375e-014 -4.77083e-014
lhumerus 24.0549 -5.20896 -2.68138
lradius 74.4222
lwrist 32.4106
lhand 22.1236 25.0118
lfingers 7.12502
lthumb 46.508 47.8918
rfemur -14.688 -2.03056 11.8033
rtibia 34.5797
rfoot -23.0851 -9.87755
rtoes -22.0097
lfemur -18.6895 -12.7646 -22.8842
ltibia 34.6204
lfoot -16.6614 -3.29385
ltoes -9.82329
1861
root 0.802094 16.8995 -0.981889 2.60524 10.9316 2.90455
lowerback 9.37833 1.61455 2.80054
upperback 4.47381 2.60624 9.8928
thorax -0.925229 1.2857 8.62174
lowerneck -13.7274 -13.2387 -15.1404
upperneck 24.2172 -19.0934 14.3947
head 13.4042 -8.27889 4.68212
rclavicle -6.04305e-014 -3.18055e-014
rhumerus -2.59746 -5.86987 -52.2597
rradius 95.3046
rwrist 16.8958
rhand 9.0011 19.5977
rfingers 7.12502
rthumb 34.1783 -7.14626
lclavicle -6.04305e-014 -3.18055e-014
lhumerus 24.5289 -4.32255 -3.60727
lradius 74.349
lwrist 32.6592
lhand 22.3056 25.0552
lfingers 7.12502
lthumb 46.6766 47.8626
rfemur -14.1141 -2.02217 11.8581
rtibia 34.4116
rfoot -23.1252 -10.1388
rtoes -21.8759
lfemur -18.2721 -12.9314 -22.9227
ltibia 34.5253
lfoot -16.5827 -3.41772
ltoes -9.93267
1862
root 0.81784 16.8973 -0.959206 2.37898 11.1926 3.12296
lowerback 9.55448 1.65296 2.68877
upperback 4.19075 2.69849 10.0408
thorax -1.34446 1.34009 8.83388
lowerneck -13.6423 -13.2484 -15.3358
upperneck 24.7737 -19.082 14.1324
head 13.6037 -8.30661 4.63035
rclavicle -3.02153e-014 -6.04305e-014
rhumerus -2.67164 -5.70229 -52.3884
rradius 94.9902
rwrist 17.1417
rhand 9.03143 19.6012
rfingers 7.12502
rthumb 34.2071 -7.13637
lclavicle -3.02153e-014 -6.04305e-014
lhumerus 24.8176 -3.57511 -4.42964
lradius 74.271
lwrist 32.8281
lhand 22.7211 25.0413
lfingers 7.12502
lthumb 47.0611 47.6806
rfemur -13.5979 -2.12901 11.5748
rtibia 34.3009
rfoot -23.1853 -10.2591
rtoes -21.8848
lfemur -17.8357 -13.0195 -23.2927
ltibia 34.4384
lfoot -16.6654 -3.5642
ltoes -9.80262
